<svg xmlns="http://www.w3.org/2000/svg" xmlns:xlink="http://www.w3.org/1999/xlink" width="96" height="96"><defs><linearGradient id="a"><stop offset="0" stop-color="#62f6ff"/><stop offset="1" stop-color="#7f39ff"/></linearGradient><linearGradient xlink:href="#a" id="b" gradientUnits="userSpaceOnUse" x1="-.5" y1="48" x2="167.2" y2="48.4"/></defs><path fill="url(#b)" d="M0 0h96v96H0z"/><g aria-label="n." style="line-height:1.25;-inkscape-font-specification:Gramatika-Bold" font-size="64" font-family="Gramatika-Bold" fill="#fff"><path d="M41.4 31.8q5.4 0 8.7 3.2 3.4 3 3.4 8.7v20.1h-8.8V46.2q0-3.2-1.7-4.8-1.6-1.6-4.4-1.6-2.8 0-4.5 1.8-1.6 1.8-1.6 5.2v17h-8.7V32.5h8.7v3q3.2-3.7 8.9-3.7zM70.6 62.6q-1.5 1.6-3.8 1.6-2.2 0-3.8-1.6-1.5-1.5-1.5-3.8 0-2.1 1.5-3.7 1.6-1.6 3.8-1.6 2.3 0 3.8 1.6 1.6 1.6 1.6 3.7 0 2.3-1.6 3.8z"/></g></svg>