<svg xmlns:osb="http://www.openswatchbook.org/uri/2009/osb" xmlns="http://www.w3.org/2000/svg" xmlns:xlink="http://www.w3.org/1999/xlink" width="512" height="512"><defs><linearGradient id="a" osb:paint="gradient"><stop offset="0" stop-color="#62f6ff"/><stop offset="1" stop-color="#7f39ff"/></linearGradient><linearGradient xlink:href="#a" id="b" gradientUnits="userSpaceOnUse" x1="-.5" y1="256" x2="759" y2="264.1"/><filter id="c" x="0" width="1" y="0" height="1" color-interpolation-filters="sRGB"><feGaussianBlur/></filter></defs><path d="M512 256a256 256 0 01-256 256A256 256 0 010 256 256 256 0 01256 0a256 256 0 01256 256z" fill="url(#b)" filter="url(#c)"/><g aria-label="n." style="line-height:1.25;-inkscape-font-specification:Gramatika-Bold" font-size="480" font-family="Gramatika-Bold" fill="#fff"><path d="M206 135q41 0 66 23t25 66v151h-66V243q0-25-12-37t-33-12q-21 0-34 14-12 14-12 39v128H74V140h66v22q24-27 66-27zM426 366q-12 11-29 11-16 0-28-11-12-12-12-29 0-16 12-27 12-12 28-12 17 0 29 12 12 11 12 27 0 17-12 29z"/></g></svg>