<?xml version="1.0" encoding="UTF-8" standalone="no"?>
<!-- Created with Inkscape (http://www.inkscape.org/) -->

<svg
   xmlns:dc="http://purl.org/dc/elements/1.1/"
   xmlns:cc="http://creativecommons.org/ns#"
   xmlns:rdf="http://www.w3.org/1999/02/22-rdf-syntax-ns#"
   xmlns:svg="http://www.w3.org/2000/svg"
   xmlns="http://www.w3.org/2000/svg"
   xmlns:xlink="http://www.w3.org/1999/xlink"
   xmlns:sodipodi="http://sodipodi.sourceforge.net/DTD/sodipodi-0.dtd"
   xmlns:inkscape="http://www.inkscape.org/namespaces/inkscape"
   width="1920"
   height="720"
   viewBox="0 0 507.99999 190.50001"
   version="1.1"
   id="svg8"
   inkscape:version="0.92.4 (5da689c313, 2019-01-14)"
   sodipodi:docname="nakama.svg">
  <defs
     id="defs2">
    <linearGradient
       inkscape:collect="always"
       id="linearGradient4546">
      <stop
         style="stop-color:#62f6ff;stop-opacity:1;"
         offset="0"
         id="stop4542" />
      <stop
         style="stop-color:#7f39ff;stop-opacity:1"
         offset="1"
         id="stop4544" />
    </linearGradient>
    <linearGradient
       inkscape:collect="always"
       xlink:href="#linearGradient4546"
       id="linearGradient4548"
       x1="-7.1815476"
       y1="327.23807"
       x2="884.46429"
       y2="-59.053593"
       gradientUnits="userSpaceOnUse" />
  </defs>
  <sodipodi:namedview
     id="base"
     pagecolor="#ffffff"
     bordercolor="#666666"
     borderopacity="1.0"
     inkscape:pageopacity="0.0"
     inkscape:pageshadow="2"
     inkscape:zoom="0.7"
     inkscape:cx="953.5667"
     inkscape:cy="417.09104"
     inkscape:document-units="mm"
     inkscape:current-layer="layer1"
     showgrid="false"
     units="px"
     inkscape:pagecheckerboard="true"
     inkscape:showpageshadow="false"
     inkscape:window-width="1920"
     inkscape:window-height="986"
     inkscape:window-x="-11"
     inkscape:window-y="-11"
     inkscape:window-maximized="1">
    <inkscape:grid
       type="xygrid"
       id="grid815" />
  </sodipodi:namedview>
  <metadata
     id="metadata5">
    <rdf:RDF>
      <cc:Work
         rdf:about="">
        <dc:format>image/svg+xml</dc:format>
        <dc:type
           rdf:resource="http://purl.org/dc/dcmitype/StillImage" />
        <dc:title></dc:title>
      </cc:Work>
    </rdf:RDF>
  </metadata>
  <g
     inkscape:label="Layer 1"
     inkscape:groupmode="layer"
     id="layer1"
     transform="translate(0,-106.49998)">
    <rect
       style="fill:url(#linearGradient4548);fill-opacity:1;stroke:none;stroke-width:0.56599998;stroke-miterlimit:4;stroke-dasharray:none;stroke-opacity:1"
       id="rect817"
       width="508"
       height="190.5"
       x="0"
       y="106.49998"
       ry="10.583336" />
    <g
       aria-label="nakama."
       style="font-style:normal;font-variant:normal;font-weight:normal;font-stretch:normal;font-size:70.55555725px;line-height:1.25;font-family:Gramatika-Bold;-inkscape-font-specification:Gramatika-Bold;letter-spacing:0px;word-spacing:0px;fill:#ffffff;fill-opacity:1;stroke:none;stroke-width:0.26458332"
       id="text821">
      <path
         d="m 71.805392,206.15971 q 5.926667,0 9.595556,3.45722 3.739444,3.38667 3.739444,9.59555 v 22.225 h -9.666111 v -19.40277 q 0,-3.59834 -1.834444,-5.36223 -1.763889,-1.76388 -4.868334,-1.76388 -3.104444,0 -4.938889,2.04611 -1.763889,1.97555 -1.763889,5.64444 v 18.83833 h -9.666111 v -34.57222 h 9.666111 v 3.24556 q 3.527778,-3.95111 9.736667,-3.95111 z"
         style="font-style:normal;font-variant:normal;font-weight:normal;font-stretch:normal;font-size:70.55555725px;font-family:Gramatika-Bold;-inkscape-font-specification:Gramatika-Bold;fill:#ffffff;fill-opacity:1;stroke-width:0.26458332"
         id="path4550" />
      <path
         d="m 124.31416,233.81748 q 0.28222,0 1.55222,-0.28222 v 8.11389 q -1.62277,0.49389 -3.66889,0.49389 -6.35,0 -8.46666,-4.02167 -3.66889,4.02167 -10.65389,4.02167 -5.362224,0 -8.748891,-2.75167 -3.386667,-2.75166 -3.386667,-7.69055 0,-4.58611 3.104445,-7.26722 3.104444,-2.75167 8.184443,-3.24556 l 10.58334,-1.05833 v -0.70556 q 0,-2.61055 -1.69334,-4.09222 -1.69333,-1.48167 -4.30389,-1.48167 -4.65666,0 -5.78555,4.37445 l -8.537225,-1.34056 q 0.917222,-5.57389 5.009444,-8.11389 4.162781,-2.61055 9.948331,-2.61055 6.985,0 11.00667,3.38666 4.02167,3.38667 4.02167,9.66611 v 12.7 q 0,1.905 1.83444,1.905 z m -11.50055,-6.13833 v -1.12889 l -7.97278,0.98778 q -2.11667,0.21167 -3.31611,1.27 -1.12889,0.98778 -1.12889,2.54 0,1.83444 1.55222,2.75167 1.55222,0.91722 4.02167,0.84666 3.03389,-0.14111 4.93889,-2.04611 1.905,-1.905 1.905,-5.22111 z"
         style="font-style:normal;font-variant:normal;font-weight:normal;font-stretch:normal;font-size:70.55555725px;font-family:Gramatika-Bold;-inkscape-font-specification:Gramatika-Bold;fill:#ffffff;fill-opacity:1;stroke-width:0.26458332"
         id="path4552" />
      <path
         d="m 131.36421,241.43748 v -49.38889 h 9.66611 v 27.94001 l 12.84111,-13.12334 h 10.86556 l -12.41778,13.05278 13.54667,21.51944 h -10.79501 l -9.45444,-13.97 -4.58611,4.86834 v 9.10166 z"
         style="font-style:normal;font-variant:normal;font-weight:normal;font-stretch:normal;font-size:70.55555725px;font-family:Gramatika-Bold;-inkscape-font-specification:Gramatika-Bold;fill:#ffffff;fill-opacity:1;stroke-width:0.26458332"
         id="path4554" />
      <path
         d="m 200.93308,233.81748 q 0.28223,0 1.55223,-0.28222 v 8.11389 q -1.62278,0.49389 -3.66889,0.49389 -6.35,0 -8.46667,-4.02167 -3.66889,4.02167 -10.65389,4.02167 -5.36222,0 -8.74889,-2.75167 -3.38666,-2.75166 -3.38666,-7.69055 0,-4.58611 3.10444,-7.26722 3.10444,-2.75167 8.18444,-3.24556 l 10.58334,-1.05833 v -0.70556 q 0,-2.61055 -1.69333,-4.09222 -1.69334,-1.48167 -4.30389,-1.48167 -4.65667,0 -5.78556,4.37445 l -8.53722,-1.34056 q 0.91722,-5.57389 5.00944,-8.11389 4.16278,-2.61055 9.94834,-2.61055 6.985,0 11.00666,3.38666 4.02167,3.38667 4.02167,9.66611 v 12.7 q 0,1.905 1.83444,1.905 z m -11.50055,-6.13833 v -1.12889 l -7.97278,0.98778 q -2.11667,0.21167 -3.31611,1.27 -1.12889,0.98778 -1.12889,2.54 0,1.83444 1.55222,2.75167 1.55222,0.91722 4.02167,0.84666 3.03389,-0.14111 4.93889,-2.04611 1.905,-1.905 1.905,-5.22111 z"
         style="font-style:normal;font-variant:normal;font-weight:normal;font-stretch:normal;font-size:70.55555725px;font-family:Gramatika-Bold;-inkscape-font-specification:Gramatika-Bold;fill:#ffffff;fill-opacity:1;stroke-width:0.26458332"
         id="path4556" />
      <path
         d="m 250.45756,206.15971 q 5.92667,0 9.59556,3.45722 3.73945,3.38667 3.73945,9.59555 v 22.225 h -9.66612 v -19.40277 q 0,-3.59834 -1.83444,-5.36223 -1.76389,-1.76388 -4.86833,-1.76388 -3.03389,0 -4.86834,2.04611 -1.83444,1.97555 -1.83444,5.64444 v 18.83833 h -9.66611 v -19.40277 q 0,-3.59834 -1.83445,-5.36223 -1.76389,-1.76388 -4.86833,-1.76388 -3.10445,0 -4.93889,2.04611 -1.76389,1.97555 -1.76389,5.64444 v 18.83833 h -9.66611 v -34.57222 h 9.66611 v 3.24556 q 3.52778,-3.95111 9.73667,-3.95111 8.39611,0 11.78278,6.27944 3.31611,-6.27944 11.28888,-6.27944 z"
         style="font-style:normal;font-variant:normal;font-weight:normal;font-stretch:normal;font-size:70.55555725px;font-family:Gramatika-Bold;-inkscape-font-specification:Gramatika-Bold;fill:#ffffff;fill-opacity:1;stroke-width:0.26458332"
         id="path4558" />
      <path
         d="m 302.90791,233.81748 q 0.28223,0 1.55223,-0.28222 v 8.11389 q -1.62278,0.49389 -3.66889,0.49389 -6.35,0 -8.46667,-4.02167 -3.66889,4.02167 -10.65389,4.02167 -5.36222,0 -8.74889,-2.75167 -3.38666,-2.75166 -3.38666,-7.69055 0,-4.58611 3.10444,-7.26722 3.10445,-2.75167 8.18445,-3.24556 l 10.58333,-1.05833 v -0.70556 q 0,-2.61055 -1.69333,-4.09222 -1.69334,-1.48167 -4.30389,-1.48167 -4.65667,0 -5.78556,4.37445 l -8.53722,-1.34056 q 0.91722,-5.57389 5.00944,-8.11389 4.16278,-2.61055 9.94834,-2.61055 6.985,0 11.00666,3.38666 4.02167,3.38667 4.02167,9.66611 v 12.7 q 0,1.905 1.83444,1.905 z m -11.50055,-6.13833 v -1.12889 l -7.97278,0.98778 q -2.11667,0.21167 -3.31611,1.27 -1.12889,0.98778 -1.12889,2.54 0,1.83444 1.55222,2.75167 1.55223,0.91722 4.02167,0.84666 3.03389,-0.14111 4.93889,-2.04611 1.905,-1.905 1.905,-5.22111 z"
         style="font-style:normal;font-variant:normal;font-weight:normal;font-stretch:normal;font-size:70.55555725px;font-family:Gramatika-Bold;-inkscape-font-specification:Gramatika-Bold;fill:#ffffff;fill-opacity:1;stroke-width:0.26458332"
         id="path4560" />
      <path
         d="m 321.10572,240.09693 q -1.69333,1.69333 -4.16278,1.69333 -2.46944,0 -4.23333,-1.69333 -1.69333,-1.69333 -1.69333,-4.16278 0,-2.39889 1.69333,-4.09222 1.76389,-1.76389 4.23333,-1.76389 2.46945,0 4.16278,1.76389 1.76389,1.69333 1.76389,4.09222 0,2.46945 -1.76389,4.16278 z"
         style="font-style:normal;font-variant:normal;font-weight:normal;font-stretch:normal;font-size:70.55555725px;font-family:Gramatika-Bold;-inkscape-font-specification:Gramatika-Bold;fill:#ffffff;fill-opacity:1;stroke-width:0.26458332"
         id="path4562" />
    </g>
  </g>
</svg>
