<svg xmlns="http://www.w3.org/2000/svg" xmlns:xlink="http://www.w3.org/1999/xlink" width="1920" height="720" viewBox="0 0 508 190.5">
  <defs>
    <linearGradient id="a">
      <stop offset="0" stop-color="#62f6ff"/>
      <stop offset="1" stop-color="#7f39ff"/>
    </linearGradient>
    <linearGradient id="b" x1="-7.182" x2="884.464" y1="327.238" y2="-59.054" gradientUnits="userSpaceOnUse" xlink:href="#a"/>
  </defs>
  <g transform="translate(0 -106.5)">
    <rect width="508" height="190.5" y="106.5" fill="url(#b)" ry="10.583"/>
    <g aria-label="nakama." style="line-height:1.25;-inkscape-font-specification:Gramatika-Bold" fill="#fff" stroke-width=".265" font-family="Gramatika-Bold" font-size="70.556" font-weight="400" letter-spacing="0" word-spacing="0">
      <path d="M71.805 206.16q5.927 0 9.596 3.457 3.74 3.387 3.74 9.595v22.225h-9.667v-19.402q0-3.599-1.834-5.363-1.764-1.763-4.868-1.763-3.105 0-4.94 2.046-1.763 1.975-1.763 5.644v18.838h-9.666v-34.572h9.666v3.246q3.528-3.951 9.736-3.951zM124.314 233.817q.282 0 1.552-.282v8.114q-1.622.494-3.669.494-6.35 0-8.466-4.022-3.67 4.022-10.654 4.022-5.362 0-8.749-2.752-3.387-2.751-3.387-7.69 0-4.586 3.105-7.267 3.104-2.752 8.184-3.246l10.584-1.058v-.706q0-2.61-1.694-4.092-1.693-1.482-4.304-1.482-4.656 0-5.785 4.375l-8.537-1.34q.917-5.575 5.009-8.115 4.163-2.61 9.948-2.61 6.985 0 11.007 3.386 4.022 3.387 4.022 9.666v12.7q0 1.905 1.834 1.905zm-11.5-6.138v-1.129l-7.973.988q-2.117.212-3.316 1.27-1.13.988-1.13 2.54 0 1.834 1.553 2.752 1.552.917 4.022.846 3.034-.14 4.939-2.046 1.905-1.905 1.905-5.22zM131.364 241.437V192.05h9.666v27.94l12.841-13.124h10.866l-12.418 13.053 13.547 21.52H155.07l-9.455-13.97-4.586 4.868v9.101zM200.933 233.817q.282 0 1.552-.282v8.114q-1.622.494-3.669.494-6.35 0-8.466-4.022-3.67 4.022-10.654 4.022-5.362 0-8.749-2.752-3.387-2.751-3.387-7.69 0-4.586 3.105-7.267 3.104-2.752 8.184-3.246l10.584-1.058v-.706q0-2.61-1.694-4.092-1.693-1.482-4.304-1.482-4.656 0-5.785 4.375l-8.537-1.34q.917-5.575 5.009-8.115 4.163-2.61 9.948-2.61 6.985 0 11.007 3.386 4.022 3.387 4.022 9.666v12.7q0 1.905 1.834 1.905zm-11.5-6.138v-1.129l-7.973.988q-2.117.212-3.316 1.27-1.13.988-1.13 2.54 0 1.834 1.553 2.752 1.552.917 4.022.846 3.034-.14 4.939-2.046 1.905-1.905 1.905-5.22zM250.458 206.16q5.926 0 9.595 3.457 3.74 3.387 3.74 9.595v22.225h-9.667v-19.402q0-3.599-1.834-5.363-1.764-1.763-4.868-1.763-3.034 0-4.869 2.046-1.834 1.975-1.834 5.644v18.838h-9.666v-19.402q0-3.599-1.835-5.363-1.764-1.763-4.868-1.763t-4.939 2.046q-1.764 1.975-1.764 5.644v18.838h-9.666v-34.572h9.666v3.246q3.528-3.951 9.737-3.951 8.396 0 11.783 6.28 3.316-6.28 11.289-6.28zM302.908 233.817q.282 0 1.552-.282v8.114q-1.623.494-3.669.494-6.35 0-8.466-4.022-3.67 4.022-10.654 4.022-5.363 0-8.75-2.752-3.386-2.751-3.386-7.69 0-4.586 3.105-7.267 3.104-2.752 8.184-3.246l10.583-1.058v-.706q0-2.61-1.693-4.092-1.693-1.482-4.304-1.482-4.657 0-5.785 4.375l-8.538-1.34q.918-5.575 5.01-8.115 4.163-2.61 9.948-2.61 6.985 0 11.007 3.386 4.021 3.387 4.021 9.666v12.7q0 1.905 1.835 1.905zm-11.5-6.138v-1.129l-7.973.988q-2.117.212-3.317 1.27-1.128.988-1.128 2.54 0 1.834 1.552 2.752 1.552.917 4.021.846 3.034-.14 4.94-2.046 1.904-1.905 1.904-5.22zM321.106 240.097q-1.694 1.693-4.163 1.693-2.47 0-4.233-1.693-1.694-1.693-1.694-4.163 0-2.399 1.694-4.092 1.764-1.764 4.233-1.764 2.47 0 4.163 1.764 1.764 1.693 1.764 4.092 0 2.47-1.764 4.163z" style="-inkscape-font-specification:Gramatika-Bold"/>
    </g>
  </g>
</svg>
